<?xml version="1.0" encoding="UTF-8"?>
<svg xmlns="http://www.w3.org/2000/svg" xmlns:xlink="http://www.w3.org/1999/xlink" viewBox="0 0 680 510">
  <defs>
    <style>.cls-1,.cls-113,.cls-124,.cls-49{fill:none;}.cls-2{fill:url(#Unbenannter_Verlauf_2);}.cls-3{fill:#f2f2f2;}.cls-4{fill:#444;}.cls-5{fill:#d3d3d3;}.cls-6{fill:#3d3d3d;}.cls-7{opacity:0.27;}.cls-8{fill:#0c173d;}.cls-9{fill:#d9eefc;}.cls-10{fill:#015dac;}.cls-11{fill:url(#Unbenannter_Verlauf_170);}.cls-12{opacity:0.68;fill:url(#Unbenannter_Verlauf_41);}.cls-13{fill:url(#Unbenannter_Verlauf_36);}.cls-14{fill:url(#Unbenannter_Verlauf_170-2);}.cls-15{fill:url(#Unbenannter_Verlauf_170-3);}.cls-16{fill:url(#Unbenannter_Verlauf_170-4);}.cls-17{fill:url(#Unbenannter_Verlauf_170-5);}.cls-18{fill:url(#Unbenannter_Verlauf_170-6);}.cls-19,.cls-34,.cls-67{fill:#fff;}.cls-20{fill:url(#Unbenannter_Verlauf_36-2);}.cls-21{fill:#4f4f4f;opacity:0.16;}.cls-22{fill:url(#Unbenannter_Verlauf_53);}.cls-23{fill:url(#Unbenannter_Verlauf_53-2);}.cls-24{fill:url(#Unbenannter_Verlauf_53-3);}.cls-25{fill:url(#Unbenannter_Verlauf_53-4);}.cls-26{fill:url(#Unbenannter_Verlauf_170-7);}.cls-27{fill:url(#Unbenannter_Verlauf_170-8);}.cls-28{fill:url(#Unbenannter_Verlauf_53-5);}.cls-29{fill:url(#Unbenannter_Verlauf_38);}.cls-30{fill:url(#Unbenannter_Verlauf_5);}.cls-31{fill:url(#Unbenannter_Verlauf_5-2);}.cls-32{fill:#595959;}.cls-33{fill:#bbe4ff;opacity:0.53;}.cls-34{opacity:0.36;}.cls-35{fill:#ffb68e;}.cls-36{fill:url(#Unbenannter_Verlauf_4);}.cls-37{fill:url(#Unbenannter_Verlauf_4-2);}.cls-38{fill:url(#Unbenannter_Verlauf_38-2);}.cls-39{fill:url(#Unbenannter_Verlauf_38-3);}.cls-40{fill:url(#Unbenannter_Verlauf_5-3);}.cls-41{fill:url(#Unbenannter_Verlauf_5-4);}.cls-42{fill:url(#Unbenannter_Verlauf_5-5);}.cls-43{fill:url(#Unbenannter_Verlauf_38-4);}.cls-44{fill:#58595b;}.cls-45{fill:url(#Unbenannter_Verlauf_38-5);}.cls-46{fill:url(#Unbenannter_Verlauf_4-3);}.cls-47{fill:url(#Unbenannter_Verlauf_38-6);}.cls-48{fill:url(#Unbenannter_Verlauf_4-4);}.cls-49{stroke:#4f4f4f;stroke-linecap:round;stroke-linejoin:round;stroke-width:2.25px;}.cls-50{fill:url(#Unbenannter_Verlauf_3);}.cls-51{fill:url(#Unbenannter_Verlauf_3-2);}.cls-52{fill:url(#Unbenannter_Verlauf_3-3);}.cls-53{fill:url(#Unbenannter_Verlauf_3-4);}.cls-54,.cls-55{fill:#1b1e3b;}.cls-54{fill-rule:evenodd;}.cls-56{fill:#f6b28c;}.cls-57{fill:#dadada;}.cls-58{fill:url(#Unbenannter_Verlauf_12);}.cls-59{fill:url(#Unbenannter_Verlauf_12-2);}.cls-60{fill:url(#Unbenannter_Verlauf_3-5);}.cls-61{fill:url(#Unbenannter_Verlauf_3-6);}.cls-62{fill:url(#Unbenannter_Verlauf_3-7);}.cls-63{fill:url(#Unbenannter_Verlauf_3-8);}.cls-64{fill:#ddd;}.cls-65{fill:url(#Unbenannter_Verlauf_3-9);}.cls-66{fill:url(#Unbenannter_Verlauf_3-10);}.cls-67{opacity:0.82;}.cls-68{fill:#b3b3b2;}.cls-69{fill:url(#Unbenannter_Verlauf_3-11);}.cls-70{fill:#f7b388;}.cls-71{fill:#cfe6fe;}.cls-72{fill:url(#Unbenannter_Verlauf_3-12);}.cls-73{clip-path:url(#clip-path);}.cls-74{fill:#173356;}.cls-75{fill:#163458;}.cls-76{fill:#173458;}.cls-77{fill:#173559;}.cls-78{fill:#17355a;}.cls-79{fill:#16365a;}.cls-80{fill:#16365b;}.cls-81{fill:#16365c;}.cls-82{fill:#15375d;}.cls-83{fill:#17375e;}.cls-84{fill:#15385f;}.cls-85{fill:#163860;}.cls-86{fill:#153a62;}.cls-87{fill:#143a63;}.cls-88{fill:#153a64;}.cls-89{fill:#143b65;}.cls-90{fill:#153b66;}.cls-91{fill:#143c67;}.cls-92{fill:#133d69;}.cls-93{fill:#143d6a;}.cls-94{fill:#133e6b;}.cls-95{fill:#143e6c;}.cls-96{fill:#143f6d;}.cls-97{fill:#123f6e;}.cls-98{fill:#13406f;}.cls-99{fill:#124170;}.cls-100{fill:#124171;}.cls-101{fill:#164273;}.cls-102{fill:#144273;}.cls-103{fill:#154375;}.cls-104{fill:#154476;}.cls-105{fill:#164477;}.cls-106{fill:#144578;}.cls-107{fill:#174579;}.cls-108{fill:#15467a;}.cls-109{fill:#16467b;}.cls-110{fill:#17477c;}.cls-111,.cls-113{stroke:#fff;}.cls-111,.cls-113,.cls-124{stroke-miterlimit:10;}.cls-111{stroke-width:0.76px;fill:url(#Unbenannter_Verlauf_9);}.cls-112,.cls-116,.cls-120,.cls-122{opacity:0.1;}.cls-113{stroke-width:3.02px;opacity:0.72;}.cls-114{opacity:0.75;}.cls-115{fill:url(#Unbenannter_Verlauf_24);}.cls-116{fill:url(#Unbenannter_Verlauf_7);}.cls-117{opacity:0.73;}.cls-118{opacity:0.25;}.cls-119{fill:url(#Unbenannter_Verlauf_24-2);}.cls-120{fill:url(#Unbenannter_Verlauf_7-2);}.cls-121{fill:url(#Unbenannter_Verlauf_24-3);}.cls-122{fill:url(#Unbenannter_Verlauf_7-3);}.cls-123{fill:#9ad0fc;}.cls-124{stroke:#16477c;stroke-width:0.84px;}.cls-125{fill:#15b1aa;}</style>
    <linearGradient id="Unbenannter_Verlauf_2" x1="768.84" y1="19.33" x2="-338.88" y2="723.98" gradientUnits="userSpaceOnUse">
      <stop offset="0.15" stop-color="#fff"></stop>
      <stop offset="1" stop-color="#79c0fb"></stop>
    </linearGradient>
    <linearGradient id="Unbenannter_Verlauf_170" x1="359.67" y1="10215.38" x2="489.59" y2="10215.38" gradientTransform="matrix(1, 0, 0, -1, 0, 10295.21)" gradientUnits="userSpaceOnUse">
      <stop offset="0" stop-color="#00808b"></stop>
      <stop offset="0.97" stop-color="#12b1aa"></stop>
    </linearGradient>
    <linearGradient id="Unbenannter_Verlauf_41" x1="0.95" y1="440.9" x2="680" y2="440.9" gradientUnits="userSpaceOnUse">
      <stop offset="0" stop-color="#0068d8" stop-opacity="0.5"></stop>
      <stop offset="0.3" stop-color="#489ced" stop-opacity="0.88"></stop>
      <stop offset="0.51" stop-color="#79c0fb" stop-opacity="0.6"></stop>
      <stop offset="1" stop-color="#79c0fb" stop-opacity="0"></stop>
    </linearGradient>
    <linearGradient id="Unbenannter_Verlauf_36" x1="-1.03" y1="240.6" x2="309.26" y2="409.49" gradientUnits="userSpaceOnUse">
      <stop offset="0" stop-color="#0480ef"></stop>
      <stop offset="0.97" stop-color="#79c0fb"></stop>
    </linearGradient>
    <linearGradient id="Unbenannter_Verlauf_170-2" x1="9023.08" y1="227.31" x2="9067.74" y2="227.31" gradientTransform="matrix(-1, 0, 0, 1, 9261.6, 0)" xlink:href="#Unbenannter_Verlauf_170"></linearGradient>
    <linearGradient id="Unbenannter_Verlauf_170-3" x1="9026.43" y1="227.31" x2="9071.08" y2="227.31" gradientTransform="matrix(-1, 0, 0, 1, 9261.6, 0)" xlink:href="#Unbenannter_Verlauf_170"></linearGradient>
    <linearGradient id="Unbenannter_Verlauf_170-4" x1="9018.48" y1="241.98" x2="9080.02" y2="241.98" gradientTransform="matrix(-1, 0, 0, 1, 9261.6, 0)" xlink:href="#Unbenannter_Verlauf_170"></linearGradient>
    <linearGradient id="Unbenannter_Verlauf_170-5" x1="8966.45" y1="166.21" x2="9117.08" y2="166.21" gradientTransform="matrix(-1, 0, 0, 1, 9261.6, 0)" xlink:href="#Unbenannter_Verlauf_170"></linearGradient>
    <linearGradient id="Unbenannter_Verlauf_170-6" x1="8971.89" y1="166.21" x2="9122.52" y2="166.21" gradientTransform="matrix(-1, 0, 0, 1, 9261.6, 0)" xlink:href="#Unbenannter_Verlauf_170"></linearGradient>
    <linearGradient id="Unbenannter_Verlauf_36-2" x1="39.42" y1="166.99" x2="358.24" y2="340.51" xlink:href="#Unbenannter_Verlauf_36"></linearGradient>
    <linearGradient id="Unbenannter_Verlauf_53" x1="17749.53" y1="-3335.28" x2="17601.7" y2="-3304.73" gradientTransform="translate(1626.76 18333.12) rotate(-82.63)" gradientUnits="userSpaceOnUse">
      <stop offset="0" stop-color="#04808a"></stop>
      <stop offset="0.97" stop-color="#103257"></stop>
    </linearGradient>
    <linearGradient id="Unbenannter_Verlauf_53-2" x1="17748.15" y1="-3341.91" x2="17600.33" y2="-3311.37" xlink:href="#Unbenannter_Verlauf_53"></linearGradient>
    <linearGradient id="Unbenannter_Verlauf_53-3" x1="17751.04" y1="-3327.94" x2="17603.22" y2="-3297.4" xlink:href="#Unbenannter_Verlauf_53"></linearGradient>
    <linearGradient id="Unbenannter_Verlauf_53-4" x1="9560.38" y1="411.04" x2="9547.85" y2="314.07" gradientTransform="matrix(-1, 0, 0, 1, 10178.47, 0)" xlink:href="#Unbenannter_Verlauf_53"></linearGradient>
    <linearGradient id="Unbenannter_Verlauf_170-7" x1="17642.6" y1="-3341.52" x2="17727.92" y2="-3341.52" gradientTransform="translate(1626.76 18333.12) rotate(-82.63)" xlink:href="#Unbenannter_Verlauf_170"></linearGradient>
    <linearGradient id="Unbenannter_Verlauf_170-8" x1="17621.44" y1="-3342.79" x2="17715.35" y2="-3342.79" gradientTransform="translate(1626.76 18333.12) rotate(-82.63)" xlink:href="#Unbenannter_Verlauf_170"></linearGradient>
    <linearGradient id="Unbenannter_Verlauf_53-5" x1="17621.06" y1="-3298.92" x2="17722.99" y2="-3298.92" xlink:href="#Unbenannter_Verlauf_53"></linearGradient>
    <linearGradient id="Unbenannter_Verlauf_38" x1="17607.09" y1="-3319.31" x2="17630.26" y2="-3319.31" gradientTransform="translate(1626.76 18333.12) rotate(-82.63)" gradientUnits="userSpaceOnUse">
      <stop offset="0" stop-color="#015dac"></stop>
      <stop offset="0" stop-color="#16477c"></stop>
      <stop offset="0.1" stop-color="#134a82"></stop>
      <stop offset="0.68" stop-color="#0658a1"></stop>
      <stop offset="1" stop-color="#015dac"></stop>
    </linearGradient>
    <linearGradient id="Unbenannter_Verlauf_5" x1="280.77" y1="235.96" x2="342.23" y2="235.96" gradientUnits="userSpaceOnUse">
      <stop offset="0" stop-color="#0c173d"></stop>
      <stop offset="0.97" stop-color="#16477c"></stop>
    </linearGradient>
    <linearGradient id="Unbenannter_Verlauf_5-2" x1="-1274.02" y1="5254.52" x2="-1246.12" y2="5254.52" gradientTransform="translate(5017.27 -2415.57) rotate(47.25)" xlink:href="#Unbenannter_Verlauf_5"></linearGradient>
    <linearGradient id="Unbenannter_Verlauf_4" x1="64.45" y1="320.7" x2="162.87" y2="445.04" gradientUnits="userSpaceOnUse">
      <stop offset="0" stop-color="#0c173d"></stop>
      <stop offset="0.97" stop-color="#103257"></stop>
    </linearGradient>
    <linearGradient id="Unbenannter_Verlauf_4-2" x1="82.82" y1="306.16" x2="181.24" y2="430.5" xlink:href="#Unbenannter_Verlauf_4"></linearGradient>
    <linearGradient id="Unbenannter_Verlauf_38-2" x1="-1369.58" y1="1776.71" x2="-1328.27" y2="1776.71" gradientTransform="translate(1907.51 -1060.85) rotate(17.74)" xlink:href="#Unbenannter_Verlauf_38"></linearGradient>
    <linearGradient id="Unbenannter_Verlauf_38-3" x1="9739.81" y1="238.18" x2="9773.28" y2="238.18" gradientTransform="matrix(-1, 0, 0, 1, 9969.76, 0)" xlink:href="#Unbenannter_Verlauf_38"></linearGradient>
    <linearGradient id="Unbenannter_Verlauf_5-3" x1="120.68" y1="296.55" x2="182.24" y2="411.98" xlink:href="#Unbenannter_Verlauf_5"></linearGradient>
    <linearGradient id="Unbenannter_Verlauf_5-4" x1="137.46" y1="287.6" x2="199.02" y2="403.03" xlink:href="#Unbenannter_Verlauf_5"></linearGradient>
    <linearGradient id="Unbenannter_Verlauf_5-5" x1="119.69" y1="297.08" x2="181.26" y2="412.51" xlink:href="#Unbenannter_Verlauf_5"></linearGradient>
    <linearGradient id="Unbenannter_Verlauf_38-4" x1="41.6" y1="207.75" x2="177.28" y2="285.11" gradientTransform="matrix(1, 0, 0, 1, 0, 0)" xlink:href="#Unbenannter_Verlauf_38"></linearGradient>
    <linearGradient id="Unbenannter_Verlauf_38-5" x1="9.77" y1="264.98" x2="81.44" y2="264.98" gradientTransform="matrix(1, 0, 0, 1, 0, 0)" xlink:href="#Unbenannter_Verlauf_38"></linearGradient>
    <linearGradient id="Unbenannter_Verlauf_4-3" x1="9.77" y1="264.98" x2="75.47" y2="264.98" xlink:href="#Unbenannter_Verlauf_4"></linearGradient>
    <linearGradient id="Unbenannter_Verlauf_38-6" x1="51.36" y1="334.37" x2="144.94" y2="334.37" gradientTransform="translate(196.3 668.74) rotate(-180)" xlink:href="#Unbenannter_Verlauf_38"></linearGradient>
    <linearGradient id="Unbenannter_Verlauf_4-4" x1="47.16" y1="341.66" x2="149.14" y2="341.66" gradientTransform="translate(196.3 683.33) rotate(-180)" xlink:href="#Unbenannter_Verlauf_4"></linearGradient>
    <linearGradient id="Unbenannter_Verlauf_3" x1="9345.11" y1="263.92" x2="9296.74" y2="437.29" gradientTransform="matrix(-1, 0, 0, 1, 9784.8, 0)" gradientUnits="userSpaceOnUse">
      <stop offset="0" stop-color="#1b1e3b"></stop>
      <stop offset="0.97" stop-color="#173355"></stop>
    </linearGradient>
    <linearGradient id="Unbenannter_Verlauf_3-2" x1="9352.98" y1="265.87" x2="9304.53" y2="439.51" xlink:href="#Unbenannter_Verlauf_3"></linearGradient>
    <linearGradient id="Unbenannter_Verlauf_3-3" x1="9487.87" y1="269.63" x2="9283.86" y2="370.81" xlink:href="#Unbenannter_Verlauf_3"></linearGradient>
    <linearGradient id="Unbenannter_Verlauf_3-4" x1="9523.05" y1="345.81" x2="9322.89" y2="445.07" xlink:href="#Unbenannter_Verlauf_3"></linearGradient>
    <linearGradient id="Unbenannter_Verlauf_12" x1="9336.21" y1="171.46" x2="9365.86" y2="199.48" gradientTransform="matrix(-1, 0, 0, 1, 9784.8, 0)" gradientUnits="userSpaceOnUse">
      <stop offset="0" stop-color="#458dc9"></stop>
      <stop offset="0" stop-color="#0fb1a9"></stop>
      <stop offset="0.42" stop-color="#0c87a9"></stop>
      <stop offset="0.79" stop-color="#0968a8"></stop>
      <stop offset="1" stop-color="#085da8"></stop>
    </linearGradient>
    <linearGradient id="Unbenannter_Verlauf_12-2" x1="9391.71" y1="209.06" x2="9314.99" y2="232.91" xlink:href="#Unbenannter_Verlauf_12"></linearGradient>
    <linearGradient id="Unbenannter_Verlauf_3-5" x1="7803.96" y1="-737.14" x2="7756.07" y2="-812.76" gradientTransform="matrix(-1.02, 0.3, 0.28, 0.96, 8613.65, -1466.61)" xlink:href="#Unbenannter_Verlauf_3"></linearGradient>
    <linearGradient id="Unbenannter_Verlauf_3-6" x1="8696.99" y1="269.73" x2="8672.52" y2="306" gradientTransform="matrix(-1, 0, 0, 1, 9153.4, 0)" xlink:href="#Unbenannter_Verlauf_3"></linearGradient>
    <linearGradient id="Unbenannter_Verlauf_3-7" x1="7727.28" y1="226.39" x2="7792.19" y2="266.34" gradientTransform="matrix(-1.25, 0, 0, 1, 10134.93, 2.36)" xlink:href="#Unbenannter_Verlauf_3"></linearGradient>
    <linearGradient id="Unbenannter_Verlauf_3-8" x1="99.2" y1="-664.06" x2="145.69" y2="-578.57" gradientTransform="matrix(-0.83, 0.56, 0.56, 0.83, 920.65, 638.01)" xlink:href="#Unbenannter_Verlauf_3"></linearGradient>
    <linearGradient id="Unbenannter_Verlauf_3-9" x1="9471.77" y1="1187.9" x2="9421.44" y2="1221.09" gradientTransform="matrix(-0.94, -0.35, -0.35, 0.94, 9778.35, 2326.95)" xlink:href="#Unbenannter_Verlauf_3"></linearGradient>
    <linearGradient id="Unbenannter_Verlauf_3-10" x1="9311.57" y1="116.82" x2="9323.33" y2="252.72" xlink:href="#Unbenannter_Verlauf_3"></linearGradient>
    <linearGradient id="Unbenannter_Verlauf_3-11" x1="9358.77" y1="181.91" x2="9422.87" y2="221.35" xlink:href="#Unbenannter_Verlauf_3"></linearGradient>
    <linearGradient id="Unbenannter_Verlauf_3-12" x1="3692.2" y1="-1348.29" x2="3704.15" y2="-1210.13" gradientTransform="matrix(-0.6, 0.8, 0.8, 0.6, 3576.55, -2008.01)" xlink:href="#Unbenannter_Verlauf_3"></linearGradient>
    <clipPath id="clip-path">
      <path class="cls-1" d="M506.62,134l7,32.42c4.19,19.42,11.11,36.92,19.29,48.74l12.58,18.19,7.35-1-11.56-18.9c-8.17-11.82-15.1-29.32-19.29-48.74l-7-32.42c-2.59-12-1-23.23,3.59-25l15.53-6.17-7.2,1.49a3.64,3.64,0,0,0-1.17.24L510.22,109C505.64,110.79,504,122,506.62,134Z"></path>
    </clipPath>
    <linearGradient id="Unbenannter_Verlauf_9" x1="1302.64" y1="181.76" x2="1366.31" y2="113.99" gradientTransform="matrix(-1, 0, 0, 1, 1862.82, 0)" gradientUnits="userSpaceOnUse">
      <stop offset="0.02" stop-color="#16b2ab"></stop>
      <stop offset="1" stop-color="#185ea9"></stop>
    </linearGradient>
    <linearGradient id="Unbenannter_Verlauf_24" x1="656.6" y1="104.74" x2="575.22" y2="214.4" gradientUnits="userSpaceOnUse">
      <stop offset="0" stop-color="#458fcb"></stop>
      <stop offset="0" stop-color="#15b1aa"></stop>
      <stop offset="0.42" stop-color="#0f87a9"></stop>
      <stop offset="0.79" stop-color="#0a68a8"></stop>
      <stop offset="1" stop-color="#085da8"></stop>
    </linearGradient>
    <linearGradient id="Unbenannter_Verlauf_7" x1="615.09" y1="139.58" x2="653.87" y2="139.58" gradientUnits="userSpaceOnUse">
      <stop offset="0" stop-color="#1b1e3b"></stop>
      <stop offset="0.97" stop-color="#17477c"></stop>
    </linearGradient>
    <linearGradient id="Unbenannter_Verlauf_24-2" x1="674.35" y1="78.95" x2="631.9" y2="136.15" xlink:href="#Unbenannter_Verlauf_24"></linearGradient>
    <linearGradient id="Unbenannter_Verlauf_7-2" x1="652.69" y1="97.12" x2="672.92" y2="97.12" xlink:href="#Unbenannter_Verlauf_7"></linearGradient>
    <linearGradient id="Unbenannter_Verlauf_24-3" x1="602.16" y1="69.76" x2="559.71" y2="126.96" xlink:href="#Unbenannter_Verlauf_24"></linearGradient>
    <linearGradient id="Unbenannter_Verlauf_7-3" x1="580.5" y1="87.93" x2="600.73" y2="87.93" xlink:href="#Unbenannter_Verlauf_7"></linearGradient>
  </defs>
  <g id="Ebene_2" data-name="Ebene 2">
    <g id="Ebene_1-2" data-name="Ebene 1">
      <path class="cls-2" d="M634.32,289.5a88.1,88.1,0,0,1,9-16.91c17.7-27,2.2-61.71-31.49-70.09-31.53-7.86-61.24-20.58-79.26-44.14a43.32,43.32,0,0,1-4-6.29c-17.57-33.7.71-76.71-17.11-110.76C496.33,12.49,457.74-2.09,422.22.24q-1.43.09-2.85.12c-82.46,1.53-172.11,122.13-200,102.18-23-11.54-43.15-33.5-68.5-41C135.43,56.92,118.29,59,105,67.39c-32.73,20.55-30.11,69.76-25.1,104a40.58,40.58,0,0,1,.44,4.8c1.12,31.59,5.7,112.89-36,119.92C29,298.69,15.79,307.3,8.15,319.46.08,332.32-4.76,348,7.14,360.19c10.56,10.91,24.35,19.39,32.92,31.62,9.72,13.87,11.62,31,18.28,46.19A47.25,47.25,0,0,0,70,453.87c75.38,68.35,265.94,26.21,367.15,48.76,69.72,15.07,149,8,208-30.38a51.72,51.72,0,0,0,5.28-4c72.14-61.47-9.09-100-18.17-157A42.55,42.55,0,0,1,634.32,289.5Z"></path>
      <rect class="cls-3" x="281.6" y="358.05" width="21.73" height="22.2" rx="1.45"></rect>
      <path class="cls-4" d="M301.67,380.54H283.26a1.94,1.94,0,0,1-1.94-1.94V359.71a1.94,1.94,0,0,1,1.94-1.94h18.41a1.94,1.94,0,0,1,1.94,1.94V378.6A1.94,1.94,0,0,1,301.67,380.54Zm-18.41-22.2a1.37,1.37,0,0,0-1.37,1.37V378.6a1.37,1.37,0,0,0,1.37,1.37h18.41A1.37,1.37,0,0,0,303,378.6V359.71a1.37,1.37,0,0,0-1.37-1.37Z"></path>
      <circle class="cls-5" cx="292.46" cy="369.15" r="6.77"></circle>
      <path class="cls-4" d="M292.46,376.07a6.92,6.92,0,1,1,6.92-6.92A6.92,6.92,0,0,1,292.46,376.07Zm0-13.55a6.63,6.63,0,1,0,6.63,6.63A6.64,6.64,0,0,0,292.46,362.52Z"></path>
      <path class="cls-4" d="M289.35,369.65a1.11,1.11,0,0,0,0-2.22,1.11,1.11,0,0,0,0,2.22Z"></path>
      <path class="cls-4" d="M295.78,369.65a1.11,1.11,0,0,0,0-2.22,1.11,1.11,0,0,0,0,2.22Z"></path>
      <path class="cls-6" d="M311.05,241c7.54,1.62,15-.09,22.5-1.2a53.93,53.93,0,0,1,12.76-.36,29.61,29.61,0,0,1,12.51,3.62,13.64,13.64,0,0,1,6.55,9.2,286.26,286.26,0,0,1,5,28.18c1.33,12.05,1.39,24.4-1.29,36.26a65.17,65.17,0,0,1-19.22,34C336.51,363,318.58,369,301,372.05q-4.23.74-8.51,1.24c-2.16.26-2.18,3.69,0,3.42,19.6-2.36,39.67-7.63,55.51-19.93a67.3,67.3,0,0,0,23.2-34.36c3.61-12.28,4.12-25.31,3.05-38a245.22,245.22,0,0,0-5.07-30.83c-.69-3.22-1.41-6.29-3.45-9-2.78-3.64-6.92-5.85-11.24-7.14a46.37,46.37,0,0,0-14.12-1.68c-5.75.12-11.31,1.43-17,2.11A34.56,34.56,0,0,1,312,237.7c-2.14-.46-3.06,2.84-.9,3.3Z"></path>
      <g class="cls-7">
        <rect class="cls-8" x="356.86" y="12.82" width="126.73" height="158.33" transform="translate(512.22 -328.24) rotate(90)"></rect>
        <rect class="cls-9" x="344.11" y="31.6" width="152.25" height="120.71"></rect>
        <rect class="cls-10" x="369.46" y="115.49" width="6.72" height="25.41"></rect>
        <rect class="cls-10" x="381.62" y="110.9" width="6.72" height="30"></rect>
        <rect class="cls-10" x="393.77" y="106.3" width="6.72" height="34.59"></rect>
        <rect class="cls-10" x="405.93" y="101.71" width="6.72" height="39.19"></rect>
        <rect class="cls-10" x="418.09" y="97.12" width="6.72" height="43.78"></rect>
        <rect class="cls-10" x="430.25" y="92.53" width="6.72" height="48.37"></rect>
        <rect class="cls-10" x="442.41" y="87.93" width="6.72" height="52.96"></rect>
        <rect class="cls-10" x="454.57" y="83.34" width="6.72" height="57.56"></rect>
        <rect class="cls-10" x="466.73" y="78.75" width="6.72" height="62.15"></rect>
        <rect class="cls-10" x="478.89" y="74.15" width="6.72" height="66.74"></rect>
        <path class="cls-11" d="M489.59,53.18h0c-.6.06-16.86,1.61-17.44,1.56l5.35,1.93-16.93,4.89c-1.16,3.68-2,6.29-2.64,8.36l-11.59-2L429.75,80.52l-12-2.53-24,17.26-10.16-4.38-24,13.9,1,1.72L383.78,93.1l10.28,4.43,24.16-17.41,12,2.53L446.85,70l12.45,2.19,2.86-9,16.16-5.87-1.64,5.26Z"></path>
      </g>
      <path class="cls-12" d="M680,440.9c0,1.37-.82,2.71-2.4,4-6,5-22.83,9.62-48.16,13.69-59.83,9.62-166.87,16-289,16-96.63,0-183.83-4-245.66-10.45q-6.12-.63-11.9-1.3C31.83,457,1,449.3,1,440.9c0-6.52,18.63-12.61,50.89-17.77,9-1.45,19.15-2.82,30.22-4.11l2.42-.28c15.09-1.72,31.9-3.29,50.16-4.67q8.42-.65,17.23-1.23l3.26-.21,8.52-.53c4.27-.26,8.59-.51,13-.76l4.65-.24,2-.11,6.37-.32,2.19-.1c1.43-.07,2.88-.15,4.33-.21l2.59-.12q7.62-.36,15.46-.66l.73,0,2.46-.09c7.94-.31,16.05-.59,24.28-.84h.5l8.87-.25h0l1,0h0l4.74-.12h0c.47,0,.93,0,1.4,0l.92,0h0q14-.34,28.45-.57h1.06l5-.08q13.49-.18,27.31-.26l4.32,0h0l9.4,0h5.89l9,0h1.24q13.23,0,26.21.17c6.64.08,13.22.16,19.73.28q11.71.18,23.16.47h0q11.34.25,22.39.61c17,.53,33.38,1.19,49.08,2h0c15.34.76,30,1.63,43.93,2.6q8.84.62,17.24,1.28c39.63,3.16,72,7.18,94.19,11.77l.94.2q3.14.66,6,1.33c1.38.33,2.72.65,4,1,1.82.46,3.52.94,5.12,1.42h0c2.12.64,4.07,1.28,5.82,1.94C676,435,680,437.89,680,440.9Z"></path>
      <path class="cls-13" d="M332.36,260.37v-8.94H306v8.94H281.3v-8.93H253.86v8.93H77.14v-8.94H52.06v8.94H15.11V425.13H358.17V260.37ZM160,416.49H22.28V269H160Zm191,0H165.77V269H351Z"></path>
      <polygon class="cls-14" points="238.51 244.19 208.75 244.19 193.86 210.44 223.63 210.44 238.51 244.19"></polygon>
      <polygon class="cls-15" points="235.17 244.19 205.4 244.19 190.52 210.44 220.28 210.44 235.17 244.19"></polygon>
      <path class="cls-16" d="M240.92,239.78H183.78a2.21,2.21,0,0,0,0,4.41h57.14a2.21,2.21,0,0,0,0-4.41Z"></path>
      <path class="cls-17" d="M153.19,221.9a8.48,8.48,0,0,1-8.57-10l12.93-91.41a11.88,11.88,0,0,1,11.38-10H286.49a8.46,8.46,0,0,1,8.56,10l-12.92,91.41a11.91,11.91,0,0,1-11.39,10Z"></path>
      <path class="cls-18" d="M147.75,221.9a8.48,8.48,0,0,1-8.57-10l12.93-91.41a11.88,11.88,0,0,1,11.38-10H281.05a8.46,8.46,0,0,1,8.56,10l-12.92,91.41a11.91,11.91,0,0,1-11.39,10Z"></path>
      <path class="cls-19" d="M148.79,214.55a4.9,4.9,0,0,1-5-5.78l12-85.12a6.87,6.87,0,0,1,6.6-5.77H280a4.89,4.89,0,0,1,5,5.77l-12,85.12a6.88,6.88,0,0,1-6.59,5.78Z"></path>
      <rect class="cls-20" x="0.05" y="243.22" width="374.3" height="8.41"></rect>
      <ellipse class="cls-21" cx="134.36" cy="437.57" rx="104.16" ry="10.47"></ellipse>
      <path class="cls-22" d="M595.16,401.3c1.64-4.73,10.64-1.08,14.36-11,.76-2-7-5.58-6.87-8,.08-1.13,8.26-1,8.31-2.19.52-13.81-6.15-23.32-3.46-31.46.94-2.84-5.08-3-4.38-5.21.25-.76,6.27.81,6.81.21,3.15-3.55,9.94-10.26,11.14-14.31.89-3,.37-7.71-.25-12.2-.14-1-6.29-.79-6.43-1.72-.44-3.09,6.2-.89,6.41-2.47.57-4.34,6.91-20.44-.22-23.23-5.32-2.08-19.22,18.51-20.93,24-.2.63,5,6.23,4.28,6.72s-7.3-4.47-8-4c-5.26,3.64-12.71,8.49-14.37,13.38-2.11,6.25,2.27,18.14,1.56,22.08-1.09,6.15-10,17.42-11.7,28.92-.1.71,8.49-.93,8.45-.22-.08,1.23-8.74,4.81-8.61,6,.09.89,15.82-6.39,16-5.51.29,1.17-14.89,10.5-14.35,11.64,4.1,8.71,11.7,5.55,15.27,5.44S595.16,401.3,595.16,401.3Z"></path>
      <path class="cls-23" d="M596.1,386.66c-.48-.13-1-.23-1.45-.32-.76,16-.29,30.61.81,39.91a.92.92,0,0,0,1.82-.21A268.47,268.47,0,0,1,596.1,386.66Z"></path>
      <path class="cls-24" d="M615.85,306.23c-.3-.27-.48.09-1.35,1.08-12.6,15.74-18.08,47.72-19.68,75.95.47.09.94.18,1.41.29,1.29-28,6.35-58.72,17.74-74.54.85-1.13,1.27-1.61,1.9-2.34A.3.3,0,0,0,615.85,306.23Z"></path>
      <path class="cls-25" d="M585.88,392.06c.34-.14.74-.29,1.18-.45,1.91-.65,4.73-1.43,7.46-2.2L596,389c3.74-1.06,7-2,7-2.56.09-.83-13.52.28-17,0-.55,0-.85-.11-.82-.24s.28-.34.66-.49c2.14-.86,8.73-1.34,9.87-2.25a.57.57,0,0,0,.15-.17c.07-.16-.35-.35-1-.57-2.32-.73-7.69-1.71-7.42-2.22a47.45,47.45,0,0,1,7.91-10.29l.54-.55h0c.47-.48,1-.95,1.42-1.41,3.88-3.76,7.76-7,10.2-9.81a15.11,15.11,0,0,0,1.8-2.43c1.64-2.85,1.83-9.38,3.07-15a24.48,24.48,0,0,1,1.34-4.36c.06-.16.79.18,1.9.78,3.78,2.08,11.9,7.33,12.18,6.89s-7-6-10.4-9c-1.13-1-1.86-1.66-1.78-1.75a15.9,15.9,0,0,1,5.17-3.39c6-2.71,14.44-4.19,18.46-6.14.66-.32,4.44,6,5.11,5.57s-1.93-7.42-1.33-7.84c1.14-.8,1.61-2.53,4.36-3.75,0,0,10.84-1.23,15.72.55a3.22,3.22,0,0,1,1.44.84,3.11,3.11,0,0,1,.58,1.5,15.62,15.62,0,0,1-3.07,12.3,9.25,9.25,0,0,1-1.24,1.34,11.05,11.05,0,0,1-2.43,1.5c-2.55,1.21-5.15,4.23-8,4.42-2.41.59-5.26-.15-5.37,0s.39,1.33,1.32,2.72l-.06,10.37c-4.61,2.46-9.67,4.91-13.07,9.72-.53.75-7.28-1.8-7.72-.93-.36.71,5.58,4.82,5.3,5.59-3.23,8.73-2.42,21.56-5.73,30.12-.5,1.28-10.45-2-11.16-.91-.45.67,8.4,5.75,7.85,6.31-7.13,7.27-13.63,2.62-17.21,4.93a4,4,0,0,0-.92.83s-.19-.37-.54-.93a15,15,0,0,0-1.82-2.31,8.61,8.61,0,0,0-3.4-2.26,16.49,16.49,0,0,0-2-.46l-1.63-.33a14.56,14.56,0,0,1-5.65-2.27,8.73,8.73,0,0,1-1.58-1.47h0c-.18-.23-.36-.46-.53-.71a11.78,11.78,0,0,1-1.82-5.58C584.68,392.64,585.12,392.37,585.88,392.06Z"></path>
      <path class="cls-26" d="M589.09,409.57c-1.83-3.76-8.92.16-13-7.65-.84-1.6,5.27-5.33,4.89-7.31-.18-.93-7,0-7.1-1-1.82-11.39,2.75-19.93-.29-26.4-1.07-2.26,3.9-3,3.09-4.76-.27-.6-5.1,1.31-5.61.86-3-2.62-9.27-7.5-10.67-10.73-1-2.36-1.08-6.35-1-10.14,0-.82,5.13-1.28,5.15-2.06.06-2.61-5.23-.12-5.56-1.4-.9-3.54-7.77-16.24-2.14-19.26,4.2-2.26,17.77,13.39,19.74,17.77.23.5-3.48,5.66-2.87,6s5.59-4.44,6.2-4.12c4.73,2.49,11.39,5.76,13.25,9.64,2.37,5-.06,15.26.92,18.45,1.52,5,10,13.42,12.59,22.77.16.58-7.12.09-7,.67.19,1,7.71,3.1,7.73,4.13,0,.75-13.74-3.71-13.83-2.95-.13,1,13.38,7.2,13,8.2-2.53,7.62-9.14,5.77-12.11,6S589.09,409.57,589.09,409.57Z"></path>
      <path class="cls-27" d="M562.79,332.86a.28.28,0,0,0-.37.42c.6.55,1,.9,1.82,1.75,17.34,18.84,25.44,69.94,25.52,95.23a.83.83,0,1,0,1.65,0C591.35,408.23,582.8,350.89,562.79,332.86Z"></path>
      <path class="cls-28" d="M642.59,335.52a.31.31,0,0,1,.4.48c-24,20.28-39.15,64.55-42.82,95.89a.81.81,0,1,1-1.6-.19C601.92,403.1,617.25,356.52,642.59,335.52Z"></path>
      <path class="cls-29" d="M580.51,425.12l.9,1.73S581.94,445,586.5,445l16.63.08c4.51,0,5.28-17.89,5.28-17.89l.92-1.94a.72.72,0,0,0-.73-.74l-27.36-.14A.73.73,0,0,0,580.51,425.12Z"></path>
      <ellipse class="cls-21" cx="592.37" cy="441.99" rx="31.57" ry="6.69"></ellipse>
      <rect class="cls-30" x="280.77" y="228.51" width="61.46" height="14.9" rx="2.61"></rect>
      <rect class="cls-31" x="285.03" y="223" width="36.58" height="5.44" rx="1.13"></rect>
      <circle class="cls-6" cx="292.46" cy="369.19" r="5.44"></circle>
      <rect class="cls-6" x="289.25" y="370.78" width="6.43" height="6.43" rx="1.44"></rect>
      <path class="cls-32" d="M115.35,140.5a4.35,4.35,0,0,0-6.72.58,6,6,0,0,0,.68,7.7,4.35,4.35,0,0,0,6.72-.58A6,6,0,0,0,115.35,140.5Zm-5.77,7.91a5.5,5.5,0,0,1-.61-7,4,4,0,0,1,6.11-.52,5.5,5.5,0,0,1,.62,7A4,4,0,0,1,109.58,148.41Z"></path>
      <path class="cls-33" d="M115.7,147.88a4,4,0,0,1-6.11.53,4.6,4.6,0,0,1-.47-.52,3.38,3.38,0,0,1-.35-.52,3.71,3.71,0,0,1-.29-.56,5.26,5.26,0,0,1-.47-1.95,5.32,5.32,0,0,1,1-3.46,4,4,0,0,1,6.11-.52,4.6,4.6,0,0,1,.47.52,5.27,5.27,0,0,1,.89,1.75,6.45,6.45,0,0,1,.16.63c0,.22.05.43.07.65A5.37,5.37,0,0,1,115.7,147.88Z"></path>
      <path class="cls-34" d="M116.44,143.15l-8,3.66a5.26,5.26,0,0,1-.47-1.95l7.54-3.46A5.27,5.27,0,0,1,116.44,143.15Z"></path>
      <path class="cls-34" d="M116.67,144.43l-7.55,3.46a3.38,3.38,0,0,1-.35-.52l7.83-3.59C116.63,144,116.65,144.21,116.67,144.43Z"></path>
      <path class="cls-32" d="M128,143a4.36,4.36,0,0,0-6.72.58,6.06,6.06,0,0,0,.67,7.71,4.37,4.37,0,0,0,6.73-.58A6.06,6.06,0,0,0,128,143Zm-5.77,7.91a5.49,5.49,0,0,1-.62-7,4,4,0,0,1,6.11-.53,5.49,5.49,0,0,1,.62,7A4,4,0,0,1,122.21,150.87Z"></path>
      <path class="cls-33" d="M128.32,150.34a4,4,0,0,1-6.11.53,3.87,3.87,0,0,1-.47-.52,2.59,2.59,0,0,1-.34-.52,3.71,3.71,0,0,1-.29-.56,5,5,0,0,1-.48-2,5.32,5.32,0,0,1,1-3.46,4,4,0,0,1,6.12-.52,5.82,5.82,0,0,1,.46.53,5.2,5.2,0,0,1,.9,1.75,6.42,6.42,0,0,1,.15.63c0,.21.05.43.07.64A5.32,5.32,0,0,1,128.32,150.34Z"></path>
      <path class="cls-34" d="M129.07,145.62l-8,3.65a5,5,0,0,1-.48-2l7.54-3.45A5.2,5.2,0,0,1,129.07,145.62Z"></path>
      <path class="cls-34" d="M129.29,146.89l-7.55,3.46a2.59,2.59,0,0,1-.34-.52l7.82-3.58C129.26,146.46,129.27,146.68,129.29,146.89Z"></path>
      <path class="cls-32" d="M116.84,145.07a2.76,2.76,0,0,1,3.73.41c.32.36.85-.17.53-.53a3.51,3.51,0,0,0-4.79-.41.38.38,0,0,0,0,.53.39.39,0,0,0,.53,0Z"></path>
      <path class="cls-35" d="M167.19,434.82H153.61a19,19,0,0,1-2.64-3.43c-2.13-3.43-6.24-2.65-6.24-2.65-1.19,1-1.45,5.55-1.5,7.11a2.44,2.44,0,0,0,0,.26h-1.61c-.55-1.42-2.5-8-1.9-10.42.07-.28.15-.59.25-.91s.28-1,.45-1.53c.12-.34.22-.71.33-1.1.6-1.87,1.24-3.89,1.56-5.15.49-1.88,1-3.55,1.43-5.14a23.37,23.37,0,0,0,4.35.41s2.58-.5,5.21-1a25,25,0,0,0-.83,5.55c1,4.42,7.69,12.94,10.17,14.95l.07,0,.08,0,.2.06h0a9.24,9.24,0,0,1,3,1.67A7.13,7.13,0,0,1,167.19,434.82Z"></path>
      <path class="cls-36" d="M153.62,436.11c-1.37,0-4-2.85-5.87-4.29a4.69,4.69,0,0,0-2.73-1.29c-1.28,1.11-1.78,4.39-1.81,5.58h-1.6c-.55-1.43-2.49-8-1.91-10.41a45.51,45.51,0,0,0,2-8.42c5-2.84,9.29,6.78,15.72,12.2,3.24,2.72,5.25,2.25,5.25,2.25l.06,0a17.33,17.33,0,0,1,4,1.24c2.68,1.61,2.72,2.61,3.09,3.11Z"></path>
      <path class="cls-35" d="M197.06,434.82H183.49a18.53,18.53,0,0,1-2.64-3.43c-2.13-3.43-6.26-2.65-6.26-2.65-1.19,1-1.45,5.55-1.5,7.11,0,.1,0,.18,0,.26h-1.6c-.54-1.42-2.49-8-1.9-10.42.06-.24.13-.5.21-.77l.25-.85c.15-.5.31-1.07.49-1.64,0-.09.06-.19.09-.28.59-1.87,1.23-3.89,1.55-5.15a32.78,32.78,0,0,0,.78-8.67c1.76,1.12,6.12,2,9.09,1.66a66.8,66.8,0,0,0,.29,6.8c1,4.42,7.69,12.94,10.18,14.95l.07,0a1.17,1.17,0,0,0,.31.08,9.44,9.44,0,0,1,3,1.67A7.47,7.47,0,0,1,197.06,434.82Z"></path>
      <path class="cls-37" d="M183.49,436.11c-1.37,0-4-2.85-5.87-4.29a4.69,4.69,0,0,0-2.73-1.29c-1.27,1.11-1.77,4.39-1.81,5.58h-1.59c-.56-1.43-2.5-8-1.91-10.41a46.34,46.34,0,0,0,2-8.42c5-2.84,9.28,6.78,15.72,12.2,3.23,2.72,5.24,2.25,5.24,2.25l.06,0a17.18,17.18,0,0,1,4,1.24c2.68,1.61,2.73,2.61,3.09,3.11Z"></path>
      <path class="cls-38" d="M85.43,197.47s-12.24,30.58-7.33,36.28c3.08,3.57,15.82,16.37,14.89,17.71S80.15,261.9,80.15,261.9,57,233.2,58,226.81s12.5-43.42,24.74-47.53c3.3-1.11.67,2.87,3.57,6.91C90.38,191.87,85.43,197.47,85.43,197.47Z"></path>
      <path class="cls-35" d="M102.68,128.46s14-3.88,19.4,7S125,167,117.93,169s-17.25-.29-20.19-7.08-5.28-16.42-4.57-22.66S99,130,102.68,128.46Z"></path>
      <path class="cls-35" d="M114.26,166.81s-.15,8.28.76,10.05-19.55,1.32-19.55,1.32,3.23-10,1.4-18.43S114.26,166.81,114.26,166.81Z"></path>
      <path class="cls-39" d="M230,243.9v-1.58s-2.24-9.87-18-9.87-15.46,11.45-15.46,11.45Z"></path>
      <path class="cls-35" d="M170.31,234.34s17,2.72,23.29-.79c1.28-.72,8-6.83,9.85-6.24s13.94,2.73,13.75,4.49-1.3,1.72-2.16,1.52-9.54-.95-10.25-.55c0,0,8.69,2,9,4.22s-1.4,3-2.09,3.9-1.38,3.13-3.5,3.55-13-1.94-15.2-1.84-19.45,2.79-19.77,2.48S170.31,234.34,170.31,234.34Z"></path>
      <path class="cls-40" d="M112.28,321.88l10.66-26.19c23.62-4.73,33.33,5.54,39.71,5.65,10.25.18,11.18,17.6,8.91,28.37-1.15,5.44-15.91,83.74-14,84.94.38.24-10.71,2.38-10.71,2.38s-7.3,0-7.14-2.38c.84-12.06,2.38-16.65,8.76-49.25,3.38-17.24,2-18.56,7.26-39.62C155.77,325.78,128.35,327.9,112.28,321.88Z"></path>
      <path class="cls-41" d="M122.74,321.88l10.65-26.19c23.63-4.73,33.33,5.54,39.72,5.65,10.25.18,11.18,17.6,8.91,28.37-1.15,5.44.95,78.93,1.75,82.56,1,4.41-12.33,2.19-12.79,0-2.67-13.05-3-36.09-6-46.84-2.58-9-1.39-29.27,1.29-39.62C166.23,325.78,138.8,327.9,122.74,321.88Z"></path>
      <path class="cls-42" d="M91.81,270.55s-20,25.36-15.74,43.52,84.09,13.59,84.09,13.59S172.28,317,175.05,301.6c0,0-27.58-10.91-45-15.89,0,0,1.07-6.37-1.46-16.87S91.81,270.55,91.81,270.55Z"></path>
      <path class="cls-43" d="M124.31,179.58C65.84,166,67.1,194.64,82.89,243.85c1.26,3.91-7.38,46.26-7.68,58.32,12.67,8.59,48.73,9.68,58.56-13.51,2.1-4.74-14.32-38.94-4.35-47.15,10.5-8.65,8.61-17.86,9.14-19.06,1.86-4.14-35.41-21.57,3.87,17.45,7.7,7.65,33.11,5.77,33,5.17-.34-2.67-1.1-11.75-1.48-11.9C145,243.19,143.63,193.32,124.31,179.58Z"></path>
      <path class="cls-8" d="M119.25,143.35c29.45-20.65-31.82-29.68-32.88-7.55a24.33,24.33,0,0,1-1.28,6.65c-1.63,4.78-3.49,13.37.59,20.64,5.47,9.73,35,14.68,39.93,1.34-9.73-.15-7.77-14.25-6.36-21.08"></path>
      <path class="cls-32" d="M128.54,144.48c-4.45,1.21-9.15,1.47-12.93,4.4a.86.86,0,0,0,0,1.21.88.88,0,0,0,1.21,0c3.47-2.69,8.1-2.85,12.18-4a.86.86,0,0,0-.46-1.65Z"></path>
      <path class="cls-44" d="M139,436.32H37.79v-2.57h44.4a6.25,6.25,0,0,0,6.25-6.25V354.74a6.26,6.26,0,0,0-6.25-6.26H47.83a8.76,8.76,0,0,1-8.44-6.28L7.11,235.14a8.83,8.83,0,0,1,8.45-11.37h33a19.45,19.45,0,0,1,18.74,13.92L98.6,341.46a6.21,6.21,0,0,0,6,4.45H139a8.84,8.84,0,0,1,8.82,8.83V427.5A8.83,8.83,0,0,1,139,436.32ZM88.4,433.75H139a6.25,6.25,0,0,0,6.25-6.25V354.74a6.26,6.26,0,0,0-6.25-6.26H104.59a8.78,8.78,0,0,1-8.45-6.28L64.86,238.43a16.9,16.9,0,0,0-16.28-12.09h-33a6.25,6.25,0,0,0-6,8.06L41.84,341.46a6.22,6.22,0,0,0,6,4.45H82.19A8.84,8.84,0,0,1,91,354.74V427.5A8.79,8.79,0,0,1,88.4,433.75Z"></path>
      <path class="cls-45" d="M76.33,295.58H32.44a8,8,0,0,1-7.7-5.73L10,241a5.14,5.14,0,0,1,4.9-6.6H58.8a8.07,8.07,0,0,1,7.71,5.74L81.22,289A5.11,5.11,0,0,1,76.33,295.58Z"></path>
      <path class="cls-46" d="M70.36,295.58H32.44a8,8,0,0,1-7.7-5.73L10,241a5.14,5.14,0,0,1,4.9-6.6H52.8a8.1,8.1,0,0,1,7.74,5.74L75.25,289A5.11,5.11,0,0,1,70.36,295.58Z"></path>
      <path class="cls-47" d="M51.36,325.79h93.58a0,0,0,0,1,0,0v13.79a3.37,3.37,0,0,1-3.37,3.37H54.73a3.37,3.37,0,0,1-3.37-3.37V325.79a0,0,0,0,1,0,0Z" transform="translate(196.3 668.74) rotate(180)"></path>
      <rect class="cls-48" x="47.16" y="336.65" width="101.98" height="10.02" rx="1.51" transform="translate(196.3 683.33) rotate(180)"></rect>
      <path class="cls-49" d="M37.79,435H139a7.55,7.55,0,0,0,7.54-7.54V354.74A7.54,7.54,0,0,0,139,347.2H104.59a7.55,7.55,0,0,1-7.22-5.37L66.09,238.06a18.29,18.29,0,0,0-17.51-13h-33"></path>
      <ellipse class="cls-21" cx="444.76" cy="485.5" rx="84.69" ry="12.99"></ellipse>
      <path class="cls-50" d="M456.71,394.63c2,6.49,5.53,1.48,9.69,2.66,2.88.81,11-4.37,12.61-6.46s-6.76-102.51-10.39-108.62c-4.87-8.2-43.29,3.13-42,17.35,1.7,18.19,13.17,36.36,19.64,54.39C450.17,364.78,451.46,377.73,456.71,394.63Z"></path>
      <path class="cls-19" d="M390.32,479.93a27.41,27.41,0,0,0,12.09-1l.63-14.14a3.3,3.3,0,0,0-.22-1.72,2.83,2.83,0,0,0-2.14-1.18c-3.21-.58-8.16-.76-8.69,3.33C391.37,470.14,390.88,475,390.32,479.93Z"></path>
      <path class="cls-19" d="M475.48,479.93a26,26,0,0,0,11.87-1q-1.32-7.06-2.62-14.14a3.8,3.8,0,0,0-.62-1.72,3.7,3.7,0,0,0-2.41-1.18c-3.34-.58-8.33-.76-7.92,3.33C474.28,470.14,474.92,475,475.48,479.93Z"></path>
      <path class="cls-51" d="M477.6,375.77c-5.21-8.5-24.47-16.16-26.08-.83-2.3,22,19.34,69.78,22.46,96.54l14.38.43C488.84,469.35,480.48,380.49,477.6,375.77Z"></path>
      <path class="cls-52" d="M401.36,386.54c.76,4.27,6.48,9.55,10.26,10.75,2.63.82,12.38-4.43,14.67-6.54S456.67,285.42,455,279.24c-2.25-8.3-14.84-1.29-22.79-2.53-11.54-1.8-20.95-3.36-20.22,11.36C413,309.47,403.53,356.78,401.36,386.54Z"></path>
      <path class="cls-53" d="M431,376.12c-2.23-8.4-21-26-27.75-1.38-7.77,28.23-10.25,67.59-12,96l14.38.42C407.08,468.66,432.28,380.79,431,376.12Z"></path>
      <path class="cls-54" d="M407.19,486.85c.08-2-.74-3.58-1.58-4s-2.15-3.74-3.89-8.54c-.8-2.2-5.24-2.82-7.45,1-.72,1.23-1.39,2-2.2,2s-1.43-1.2-2.08-.42-.73,2.49-.87,3.78c-.26,2.22-.48,4.45-.72,6.68,0,.49-.11,1-.12,1.51h18.51A5.8,5.8,0,0,0,407.19,486.85Z"></path>
      <path class="cls-55" d="M475.1,475.76s8.86.24,9.1,0,1.3-4.32,2.36-3.83,2.33,5.59,3.37,6.17,7.91,4.67,8.91,5.71,7.29.47,8,2.28.67,6.09-8.67,5-21.45.18-23.45-1S474.41,478.51,475.1,475.76Z"></path>
      <path class="cls-19" d="M416.82,173.28l28.45-6.44,13.61,26.64a39.55,39.55,0,0,1,4.35,18l1.48,75.78a85.3,85.3,0,0,1-14.86-.43c-7.13-1.08-40.51-.9-40.51-.9Z"></path>
      <path class="cls-56" d="M425,146c.16.12.3.25.46.39,2.38,2,4.83,3.84,6.87,5.64,3.34,2.95,6.53,4.74,9.28,5.17,3.24.55,5.86-.81,7.37-4.35,1.09-2.51,1.13-6.85.44-11.61-.95-6.63-3.26-14.11-6.08-18.68-.14-.26-.3-.5-.46-.74l-.2-.28a6.9,6.9,0,0,0-.54-.73s0,0,0-.06a11.55,11.55,0,0,0-.87-1c-5.32-5.52-11.81-2.53-12.69-2.93,0,0-11.19,6.42-12.74,11.69a9.24,9.24,0,0,0-.37,1.9C414.79,136.44,419.68,141.48,425,146Z"></path>
      <path class="cls-56" d="M441.54,153.59l1.11,20.21c.23,4.16-2.2,4.22-5.47,4.52a23.86,23.86,0,0,1-2.57.11c-4.43,0-9.12-5-9.06-10.57.09-7.15.19-13.75-.78-19.86C423.2,138,440.78,148.47,441.54,153.59Z"></path>
      <path class="cls-57" d="M425.85,164.1c3.76,4.56,4.4,10,11.66,13.31-2.73,3.42-5.84,7.19-8.57,10.61C426.38,180,424.09,171.75,425.85,164.1Z"></path>
      <path class="cls-57" d="M442.21,165.86s.52,2.16-2.11,8.15c-1,2.35-2.74,3-2.59,3.4.88,2.09,9.22,6.89,9.22,6.89l-2.8-16.63Z"></path>
      <path class="cls-58" d="M437.14,185.18l2.47-.5s.72-4.65-.41-5.37a12.39,12.39,0,0,1-1.86-2l-1.62,2Z"></path>
      <path class="cls-59" d="M452.4,246.72c0,4.68-6.59,17.51-6.59,17.51s-4.69-9.72-4.45-13.19c3.4-50.1-4.24-66.33-4.24-66.33l2.5,0S452.4,208.71,452.4,246.72Z"></path>
      <path class="cls-60" d="M422,144.05l4.13,5.83-2.43-13.4-.86-9.9,18.75-6.52s6.94-9.35.47-13.41-14.36-1.74-14.36-1.74,6,2.41,5.25,4.41c0,0-3.1-3.85-9-1.52,0,0,4.33,3.5,1.9,4.21s-13.42,10.48-11.61,18.88c0,0,.57-.19,1.59,4.12C417,140.15,422,144.05,422,144.05Z"></path>
      <path class="cls-56" d="M423.31,135.35s-2.33-2-4,0,4.14,9.89,6.24,6.76Z"></path>
      <polygon class="cls-61" points="466.35 282 467.13 290.64 469.53 289.99 468.09 282 466.35 282"></polygon>
      <path class="cls-62" d="M426,163.42l.87,35.9a66.77,66.77,0,0,1,2.72,20.39l-1.13,48.64,2.09,37s-37.59-4-45.44-7.08c0,0,18.83-32.94,19-58.32,0-6.58-3.76-24.07-6.34-30.74-5.28-13.67-.17-16.88-.15-20.6C397.69,175.7,385.86,174.38,426,163.42Z"></path>
      <path class="cls-56" d="M528,175.83a5.9,5.9,0,0,0,3.48-3.52c1.28-3.53.88-4.94-.65-6.82-5.1-6.25-4.73-12-4.73-12l-3.4,3.85Z"></path>
      <path class="cls-56" d="M530,174.57c.39-.53,2.58-4.59,1.18-7.82s-4.56-8.76-4.84-9.41c-1.4-3.22,1.81-10,1.61-12.2a7.44,7.44,0,0,0-1.67-3.87s-6.42,13.51-6.14,14.16,1.14,7.94,3.1,12.46c.69,1.61,4,7,4,7Z"></path>
      <polyline class="cls-56" points="529.36 174.43 524 184.53 516.06 179.12 524.19 169.13"></polyline>
      <path class="cls-63" d="M455.12,179.25c-.31-.46-11.62-14.6-11.62-14.6,6.07-1.76,9.84-1,18,2.19s7.33,10.39,25.11,25c16.14,13.21,14.21,29.24,9.2,30.76-7.21,2.19-23-17.87-23-17.87C464.82,198.74,455.12,179.25,455.12,179.25Z"></path>
      <path class="cls-64" d="M525.59,181.29a40.27,40.27,0,0,0,2.72-3.67l-8.06-6.35-2,4.86Z"></path>
      <path class="cls-65" d="M494.77,222.21c2.39,1.79,11.2-2.87,18.91-18.43,7.54-15.2,13.8-23.18,13.8-23.18s-6.79-7.33-8.93-7.91S497.42,198.2,492,204C481.81,215,494.77,222.21,494.77,222.21Z"></path>
      <path class="cls-66" d="M442.24,165.9l.73.94,1.57,1.76s20.94,35.76,18.73,61.91c-1.55,18.31,1.19,73.23,1.19,73.23s12.25-.72,20-3.81c0,0-12.34-31.26-12.56-56.63-.06-6.58,1.31-22,1.67-29.29.7-14.28-7-24.55-7-28.27-.1-12.42-.07-10.87-23.74-21.64-.37-.17-.68-.23-.68-.11A17.39,17.39,0,0,1,442.24,165.9Z"></path>
      <path class="cls-67" d="M450.24,282.55l-.39-6.29h1l.39,6.29Z"></path>
      <path class="cls-67" d="M454.76,282.59a2.16,2.16,0,0,1-1.89-.77,5,5,0,0,1-.63-2.47,4.47,4.47,0,0,1,.33-2.44,1.93,1.93,0,0,1,1.79-.71,7.56,7.56,0,0,1,1.79.24v.81a9,9,0,0,0-1.63-.15,1.11,1.11,0,0,0-1.08.47,3.78,3.78,0,0,0-.17,1.81,4.06,4.06,0,0,0,.39,1.82,1.24,1.24,0,0,0,1.12.5,10.07,10.07,0,0,0,1.64-.13l.08.84A9.12,9.12,0,0,1,454.76,282.59Z"></path>
      <path class="cls-68" d="M427.17,260.88H457a4.42,4.42,0,0,0,4.29-3.38l12.94-53.41a4.43,4.43,0,0,0-4.3-5.47H440.1a4.43,4.43,0,0,0-4.3,3.38l-12.93,53.41A4.42,4.42,0,0,0,427.17,260.88Z"></path>
      <path class="cls-69" d="M398.63,173.14c2.33-.7,17.53,1.51,13.14,13.2-5.45,14.51-16.33,26.32-25.41,38.88-2.79,3.86-5.63,7.76-9.31,10.78s-7.24,8.41-12,8c-2.49-.2-4.57-6.56-5.79-9-1-2-.81-3.54-.85-5.54C358.23,220.22,385.66,177,398.63,173.14Z"></path>
      <path class="cls-70" d="M428.87,229.75c0-.26-.06-.53-.07-.83-1.93.78-2.92,1.82-5,2.23a1.61,1.61,0,0,0-1.16.58,1.65,1.65,0,0,0-.16.88c.05,3.51.31,7.49,3,9.73s6.29,1.8,9.58,1.37c2.8-.37,5.54-.61,7.23-3.09a7.39,7.39,0,0,0,1-6.37,6.79,6.79,0,0,1-.46-1.64c-.08-1.43,1.19-2.85.63-4.17a.7.7,0,0,0-.22-.29.73.73,0,0,0-.56,0,23.55,23.55,0,0,0-6.06,2.87C432.8,233.54,429.46,234.85,428.87,229.75Z"></path>
      <path class="cls-71" d="M423.87,243.2c-1.52,1.89-6.48.1-8.55-1.16-.6-.37-.67-5.33-1.82-11.21l10.75-.27C423.71,236.15,424.18,242.81,423.87,243.2Z"></path>
      <path class="cls-72" d="M363,241.64c-1.14-2-.8-3.63.19-5.73,1.65-3.52,4.26-7.4,7.56-9.58,2.28-1.5,4.58-.36,7-.05,6.17.77,29.31,2.82,41.22,4.17l1.47,14.11c-14.5,2.59-45.07,2-51.07,1.21A8.81,8.81,0,0,1,363,241.64Z"></path>
      <ellipse class="cls-55" cx="469.54" cy="204.39" rx="1.91" ry="1.45"></ellipse>
      <g class="cls-73">
        <polygon class="cls-74" points="552.84 227.02 534.51 233.37 552.84 233.37 552.84 227.02"></polygon>
        <polygon class="cls-74" points="552.84 224.15 532.64 231.14 533.41 233.37 534.51 233.37 552.84 227.02 552.84 224.15"></polygon>
        <polygon class="cls-75" points="552.84 221.27 531.75 228.57 532.64 231.14 552.84 224.15 552.84 221.27"></polygon>
        <polygon class="cls-76" points="552.84 218.39 530.86 226 531.75 228.57 552.84 221.27 552.84 218.39"></polygon>
        <polygon class="cls-77" points="552.84 215.51 529.97 223.43 530.86 226 552.84 218.39 552.84 215.51"></polygon>
        <polygon class="cls-78" points="552.84 212.63 529.08 220.86 529.97 223.43 552.84 215.51 552.84 212.63"></polygon>
        <polygon class="cls-79" points="552.84 209.75 528.19 218.28 529.08 220.86 552.84 212.63 552.84 209.75"></polygon>
        <polygon class="cls-80" points="552.84 206.87 527.3 215.72 528.19 218.28 552.84 209.75 552.84 206.87"></polygon>
        <polygon class="cls-81" points="552.84 203.99 526.41 213.14 527.3 215.72 552.84 206.87 552.84 203.99"></polygon>
        <polygon class="cls-82" points="552.84 201.11 525.52 210.57 526.41 213.14 552.84 203.99 552.84 201.11"></polygon>
        <polygon class="cls-83" points="552.84 198.23 524.63 208 525.52 210.57 552.84 201.11 552.84 198.23"></polygon>
        <polygon class="cls-84" points="552.84 195.35 523.74 205.43 524.63 208 552.84 198.23 552.84 195.35"></polygon>
        <polygon class="cls-85" points="552.84 192.48 522.85 202.86 523.74 205.43 552.84 195.35 552.84 192.48"></polygon>
        <polygon class="cls-86" points="552.84 189.6 521.96 200.29 522.85 202.86 552.84 192.48 552.84 189.6"></polygon>
        <polygon class="cls-87" points="552.84 186.72 521.07 197.72 521.96 200.29 552.84 189.6 552.84 186.72"></polygon>
        <polygon class="cls-88" points="552.84 183.84 520.17 195.15 521.07 197.72 552.84 186.72 552.84 183.84"></polygon>
        <polygon class="cls-89" points="552.84 180.96 519.28 192.58 520.17 195.15 552.84 183.84 552.84 180.96"></polygon>
        <polygon class="cls-90" points="552.84 178.08 518.39 190.01 519.28 192.58 552.84 180.96 552.84 178.08"></polygon>
        <polygon class="cls-91" points="552.84 175.2 517.5 187.44 518.39 190.01 552.84 178.08 552.84 175.2"></polygon>
        <polygon class="cls-92" points="552.84 172.32 516.62 184.87 517.5 187.44 552.84 175.2 552.84 172.32"></polygon>
        <polygon class="cls-93" points="552.84 169.44 515.73 182.29 516.62 184.87 552.84 172.32 552.84 169.44"></polygon>
        <polygon class="cls-94" points="552.84 166.57 514.83 179.72 515.73 182.29 552.84 169.44 552.84 166.57"></polygon>
        <polygon class="cls-95" points="552.84 163.69 513.94 177.15 514.83 179.72 552.84 166.57 552.84 163.69"></polygon>
        <polygon class="cls-96" points="552.84 160.81 513.05 174.58 513.94 177.15 552.84 163.69 552.84 160.81"></polygon>
        <polygon class="cls-97" points="552.84 157.93 512.16 172.01 513.05 174.58 552.84 160.81 552.84 157.93"></polygon>
        <polygon class="cls-98" points="552.84 155.05 511.27 169.44 512.16 172.01 552.84 157.93 552.84 155.05"></polygon>
        <polygon class="cls-99" points="552.84 152.66 552.68 152.22 510.38 166.87 511.27 169.44 552.84 155.05 552.84 152.66"></polygon>
        <rect class="cls-100" x="508.71" y="156.9" width="44.76" height="2.72" transform="translate(-22.55 182.49) rotate(-19.1)"></rect>
        <rect class="cls-101" x="507.82" y="154.33" width="44.76" height="2.72" transform="translate(-21.76 182.06) rotate(-19.1)"></rect>
        <rect class="cls-102" x="506.93" y="151.76" width="44.76" height="2.72" transform="translate(-20.96 181.63) rotate(-19.1)"></rect>
        <rect class="cls-103" x="506.04" y="149.19" width="44.76" height="2.72" transform="translate(-20.17 181.19) rotate(-19.1)"></rect>
        <rect class="cls-104" x="505.15" y="146.62" width="44.76" height="2.72" transform="translate(-19.38 180.76) rotate(-19.1)"></rect>
        <rect class="cls-105" x="504.26" y="144.05" width="44.76" height="2.72" transform="translate(-18.59 180.33) rotate(-19.1)"></rect>
        <rect class="cls-106" x="503.37" y="141.48" width="44.76" height="2.72" transform="translate(-17.8 179.9) rotate(-19.1)"></rect>
        <polygon class="cls-107" points="546.45 134.23 545.56 131.66 504.03 146.04 504.03 148.53 504.15 148.88 546.45 134.23"></polygon>
        <polygon class="cls-108" points="545.56 131.66 544.67 129.09 504.03 143.16 504.03 146.04 545.56 131.66"></polygon>
        <polygon class="cls-109" points="544.67 129.09 543.78 126.52 504.03 140.28 504.03 143.16 544.67 129.09"></polygon>
        <polygon class="cls-110" points="543.78 126.52 542.89 123.94 504.03 137.4 504.03 140.28 543.78 126.52"></polygon>
        <polygon class="cls-110" points="542.89 123.94 534.97 101.07 504.03 101.07 504.03 137.4 542.89 123.94"></polygon>
      </g>
      <path class="cls-19" d="M532.74,215.29c-8.24-11.91-15.1-29.24-19.32-48.81l-7-32.42c-2.61-12.09-.94-23.43,3.72-25.28l15.53-6.16a3.59,3.59,0,0,1,1.2-.26l7.2-1.48.12.38-15.54,6.17c-4.48,1.77-6,12.91-3.47,24.82l7,32.41c4.21,19.52,11,36.81,19.26,48.68l11.72,19.17-7.78,1.08Zm8.38-1.73c-8.24-11.91-15.1-29.24-19.32-48.81l-7-32.42c-2.61-12.09-.94-23.43,3.72-25.28l13.4-5.32-5,1a3.38,3.38,0,0,0-1.11.23l-15.53,6.17c-4.48,1.77-6,12.91-3.47,24.82l-.2,0,.2,0,7,32.41c4.21,19.52,11.05,36.81,19.26,48.67l12.51,18.09,6.92-1Z"></path>
      <path class="cls-111" d="M534.12,101.07c5.37-2,11.83,6.16,14.44,18.17l7.05,32.41c4.22,19.42,4.86,39.32,1.81,55.43l-4.4,25L538.73,214c-9.08-11.63-16.53-29-20.75-48.44l-7-32.41c-2.61-12-.38-23.36,5-25.34Z"></path>
      <g class="cls-112">
        <path class="cls-55" d="M510.85,132.87l7,32.41c4.22,19.42,11.67,36.8,20.76,48.43l14,17.91.44-2.33-25.9-125.94-11.33,4.18C510.47,109.51,508.24,120.85,510.85,132.87Z"></path>
      </g>
      <polyline class="cls-113" points="555.04 185.49 549.99 202.37 516.01 125.71"></polyline>
      <g class="cls-114">
        <path class="cls-115" d="M652.85,163l-31.31-54.2a7.45,7.45,0,0,0-12.91,0L577.32,163a7.45,7.45,0,0,0,6.45,11.18H646.4A7.45,7.45,0,0,0,652.85,163Z"></path>
        <path class="cls-116" d="M615.09,164.75v9.38h31.32A7.45,7.45,0,0,0,652.86,163l-31.32-54.2a7.39,7.39,0,0,0-6.45-3.72v16.08m0,30.58v5.16"></path>
        <g class="cls-117">
          <path class="cls-19" d="M612.32,157.54a2.76,2.76,0,0,1,2.77-2.92,2.91,2.91,0,0,1,0,5.82A2.74,2.74,0,0,1,612.32,157.54Zm1.17-6.72-.66-22.53h4.51l-.66,22.53Z"></path>
        </g>
      </g>
      <g class="cls-118">
        <path class="cls-119" d="M672.39,109.31,656.06,81a3.89,3.89,0,0,0-6.73,0L633,109.31a3.88,3.88,0,0,0,3.37,5.83H669A3.88,3.88,0,0,0,672.39,109.31Z"></path>
        <path class="cls-120" d="M652.69,110.25v4.89H669a3.88,3.88,0,0,0,3.36-5.83L656.06,81a3.86,3.86,0,0,0-3.37-2v8.4m0,16v2.69"></path>
        <g class="cls-117">
          <path class="cls-19" d="M651.25,106.49a1.43,1.43,0,0,1,1.44-1.52,1.52,1.52,0,0,1,0,3A1.43,1.43,0,0,1,651.25,106.49Zm.61-3.51-.34-11.75h2.35L653.53,103Z"></path>
        </g>
      </g>
      <g class="cls-7">
        <path class="cls-121" d="M600.21,100.13,583.87,71.85a3.89,3.89,0,0,0-6.73,0L560.8,100.13a3.89,3.89,0,0,0,3.37,5.83h32.67A3.89,3.89,0,0,0,600.21,100.13Z"></path>
        <path class="cls-122" d="M580.5,101.06V106h16.34a3.88,3.88,0,0,0,3.37-5.83L583.87,71.85a3.87,3.87,0,0,0-3.37-1.94V78.3m0,16v2.69"></path>
        <g class="cls-117">
          <path class="cls-19" d="M579.06,97.3a1.44,1.44,0,0,1,1.44-1.52,1.52,1.52,0,0,1,0,3A1.44,1.44,0,0,1,579.06,97.3Zm.61-3.5-.34-11.75h2.35l-.34,11.75Z"></path>
        </g>
      </g>
      <path class="cls-123" d="M206,130.34l-21.59.26c-.74,0-1.28-.24-1.19-.56s.75-.59,1.5-.59l21.58-.26c.74,0,1.28.24,1.2.56S206.77,130.33,206,130.34Z"></path>
      <path class="cls-123" d="M270.16,132.52l-16.43.19c-.75,0-1.29-.24-1.21-.56s.75-.59,1.5-.59l16.42-.2c.75,0,1.29.24,1.21.56S270.9,132.51,270.16,132.52Z"></path>
      <path class="cls-123" d="M246.61,132.8l-62.94.75c-.75,0-1.29-.25-1.2-.57s.76-.58,1.5-.59l62.93-.75c.75,0,1.29.24,1.21.56S247.36,132.79,246.61,132.8Z"></path>
      <path class="cls-123" d="M269.43,135.48l-86.54,1c-.74,0-1.28-.24-1.2-.56s.76-.59,1.51-.59l86.51-1c.75,0,1.29.24,1.21.56S270.17,135.47,269.43,135.48Z"></path>
      <path class="cls-123" d="M268.7,138.43l-27.53.32c-.75,0-1.29-.24-1.21-.56s.76-.59,1.5-.6l27.52-.32c.75,0,1.29.24,1.21.56S269.44,138.42,268.7,138.43Z"></path>
      <path class="cls-123" d="M234.32,138.83l-52.2.61c-.75,0-1.29-.25-1.2-.57s.75-.58,1.5-.59l52.19-.61c.75,0,1.29.25,1.21.57S235.07,138.82,234.32,138.83Z"></path>
      <path class="cls-123" d="M270.89,129.56l-57.78.7c-.75,0-1.29-.25-1.2-.57s.75-.58,1.5-.59l57.76-.7c.75,0,1.29.25,1.21.57S271.63,129.55,270.89,129.56Z"></path>
      <path class="cls-123" d="M200.55,151.53l-21.67.24c-.75,0-1.29-.25-1.2-.57s.76-.58,1.5-.59l21.66-.24c.75,0,1.29.24,1.21.56S201.29,151.52,200.55,151.53Z"></path>
      <path class="cls-123" d="M264.92,153.76l-16.49.18c-.74,0-1.29-.24-1.21-.56s.75-.59,1.5-.6l16.49-.18c.74,0,1.29.24,1.21.56S265.67,153.75,264.92,153.76Z"></path>
      <path class="cls-123" d="M241.29,154l-63.18.69c-.75,0-1.29-.24-1.2-.56s.76-.59,1.5-.6l63.17-.69c.75,0,1.29.24,1.21.56S242,154,241.29,154Z"></path>
      <path class="cls-123" d="M264.19,156.71l-86.85.94c-.75,0-1.29-.24-1.2-.56s.75-.59,1.5-.59l86.84-.95c.75,0,1.29.25,1.21.57S264.94,156.7,264.19,156.71Z"></path>
      <path class="cls-123" d="M263.47,159.67l-27.62.29c-.75,0-1.3-.24-1.22-.56s.76-.59,1.51-.6l27.61-.29c.75,0,1.3.24,1.22.56S264.22,159.66,263.47,159.67Z"></path>
      <path class="cls-123" d="M229,160l-52.4.55c-.75,0-1.29-.24-1.2-.56s.76-.58,1.51-.59l52.38-.56c.75,0,1.29.24,1.21.56S229.72,160,229,160Z"></path>
      <path class="cls-123" d="M265.65,150.81l-58,.64c-.74,0-1.28-.25-1.2-.56s.75-.59,1.5-.6l58-.64c.75,0,1.29.24,1.22.56S266.4,150.8,265.65,150.81Z"></path>
      <path class="cls-123" d="M195.29,172l-21.74.22c-.75,0-1.29-.24-1.2-.56s.75-.58,1.51-.59l21.73-.22c.75,0,1.29.24,1.21.56S196.05,172,195.29,172Z"></path>
      <path class="cls-123" d="M259.9,174.24l-16.54.17c-.75,0-1.3-.25-1.22-.57s.75-.58,1.5-.59l16.54-.17c.75,0,1.3.25,1.22.57S260.65,174.24,259.9,174.24Z"></path>
      <path class="cls-123" d="M236.19,174.48l-63.4.63c-.75,0-1.29-.24-1.21-.56s.76-.58,1.51-.59l63.39-.64c.75,0,1.29.25,1.21.57S236.94,174.47,236.19,174.48Z"></path>
      <path class="cls-123" d="M259.18,177.19l-87.15.87c-.76,0-1.3-.25-1.22-.57s.76-.58,1.52-.59l87.13-.86c.75,0,1.3.24,1.22.56S259.93,177.19,259.18,177.19Z"></path>
      <path class="cls-123" d="M258.46,180.15l-27.72.27c-.75,0-1.3-.25-1.22-.57s.76-.58,1.51-.59l27.71-.27c.75,0,1.3.24,1.22.56S259.21,180.14,258.46,180.15Z"></path>
      <path class="cls-123" d="M223.84,180.48l-52.58.52c-.75,0-1.29-.25-1.21-.57s.76-.58,1.51-.59l52.57-.51c.75,0,1.3.24,1.22.56S224.59,180.48,223.84,180.48Z"></path>
      <path class="cls-123" d="M260.62,171.29l-58.19.59c-.75,0-1.3-.24-1.21-.56s.75-.59,1.5-.59l58.19-.6c.75,0,1.29.25,1.21.57S261.37,171.28,260.62,171.29Z"></path>
      <path class="cls-123" d="M190,192.74l-21.82.2c-.75,0-1.3-.25-1.21-.57s.76-.58,1.51-.59l21.81-.2c.76,0,1.3.25,1.22.57S190.74,192.73,190,192.74Z"></path>
      <path class="cls-123" d="M254.82,195.08l-16.6.16c-.75,0-1.3-.25-1.22-.57s.75-.58,1.51-.59l16.59-.15c.76,0,1.3.24,1.23.56S255.58,195.08,254.82,195.08Z"></path>
      <path class="cls-123" d="M231,195.3l-63.62.57c-.75,0-1.3-.24-1.21-.56s.76-.58,1.51-.59l63.61-.58c.75,0,1.3.25,1.22.57S231.78,195.29,231,195.3Z"></path>
      <path class="cls-123" d="M254.1,198l-87.44.78c-.76,0-1.3-.24-1.22-.56s.76-.58,1.51-.59l87.44-.78c.75,0,1.3.24,1.22.56S254.86,198,254.1,198Z"></path>
      <path class="cls-123" d="M253.39,201l-27.81.25c-.76,0-1.3-.25-1.23-.57s.76-.58,1.51-.59l27.81-.25c.75,0,1.3.25,1.23.57S254.14,201,253.39,201Z"></path>
      <path class="cls-123" d="M218.66,201.29l-52.76.46c-.76,0-1.3-.25-1.22-.56s.76-.59,1.52-.59l52.74-.47c.76,0,1.31.25,1.23.57S219.41,201.28,218.66,201.29Z"></path>
      <path class="cls-123" d="M255.54,192.13l-58.39.54c-.76,0-1.3-.24-1.22-.56s.76-.59,1.51-.59l58.38-.54c.75,0,1.3.24,1.22.56S256.29,192.13,255.54,192.13Z"></path>
      <path class="cls-124" d="M175.39,137.69l-5.08.06c-1.5,0-2.45-.95-2.13-2.15l1.1-4.1a3.49,3.49,0,0,1,3.28-2.22l5.07-.06c1.5,0,2.45.95,2.13,2.15l-1.09,4.1A3.46,3.46,0,0,1,175.39,137.69Z"></path>
      <path class="cls-124" d="M169.84,158.77l-5.11.06c-1.5,0-2.46-1-2.14-2.16l1.09-4.09a3.46,3.46,0,0,1,3.29-2.21l5.09-.06c1.5,0,2.46.95,2.14,2.15l-1.08,4.1A3.46,3.46,0,0,1,169.84,158.77Z"></path>
      <path class="cls-124" d="M164.32,179.84l-5.12,0c-1.51,0-2.47-.95-2.15-2.15l1.07-4.1a3.47,3.47,0,0,1,3.29-2.2l5.12-.05c1.5,0,2.47.94,2.15,2.15l-1.07,4.09A3.46,3.46,0,0,1,164.32,179.84Z"></path>
      <path class="cls-124" d="M158.85,200.89l-5.14,0c-1.51,0-2.48-1-2.17-2.15l1.07-4.09a3.47,3.47,0,0,1,3.3-2.2l5.13-.05c1.51,0,2.48.95,2.17,2.15l-1.06,4.1A3.48,3.48,0,0,1,158.85,200.89Z"></path>
      <path class="cls-125" d="M173.18,136.49a.69.69,0,0,1-.56-.23l-2.93-3.8c-.2-.27-.05-.68.35-.91a.88.88,0,0,1,1.1.07l2.41,3.14,9.38-9a1,1,0,0,1,1.15-.21c.32.18.33.58,0,.88l-10.16,9.78a1.18,1.18,0,0,1-.7.31Z"></path>
      <path class="cls-125" d="M167.65,157.4a.67.67,0,0,1-.55-.23l-2.95-3.81c-.21-.27-.06-.67.34-.9a.88.88,0,0,1,1.1.07l2.43,3.14,9.4-9a1,1,0,0,1,1.15-.21c.32.19.33.58,0,.89l-10.17,9.76a1.11,1.11,0,0,1-.71.3Z"></path>
      <path class="cls-125" d="M162.15,178.38a.69.69,0,0,1-.56-.23l-3-3.81c-.21-.27-.06-.67.34-.9a.9.9,0,0,1,1.11.07l2.44,3.14,9.41-9a1,1,0,0,1,1.15-.21c.33.19.33.58,0,.88l-10.19,9.75a1.13,1.13,0,0,1-.7.31Z"></path>
    </g>
  </g>
</svg>
